HIERARCHY
ROOT SpineBase
{
  OFFSET 0.000000 0.000000 0.000000
  CHANNELS 6 Xposition Yposition Zposition Zrotation Xrotation Yrotation
  JOINT SpineMid
  {
    OFFSET 0.000000 26.791917 0.000000
    CHANNELS 3 Zrotation Xrotation Yrotation
    JOINT SpineShoulder
    {
      OFFSET -0.072651 19.903919 -0.496462
      CHANNELS 3 Zrotation Xrotation Yrotation
      JOINT Neck
      {
        OFFSET -0.041567 6.602570 -0.422791
        CHANNELS 3 Zrotation Xrotation Yrotation
        JOINT Head
        {
          OFFSET -3.222176 11.810958 0.281799
          CHANNELS 3 Zrotation Xrotation Yrotation
          End Site
          {
            OFFSET 0 0 0
          }
        }
      }
      JOINT ShoulderLeft
      {
        OFFSET -12.085222 -4.977919 6.163781
        CHANNELS 3 Zrotation Xrotation Yrotation
        JOINT ElbowLeft
        {
          OFFSET -0.954282 -19.150706 5.434508
          CHANNELS 3 Zrotation Xrotation Yrotation
          JOINT WristLeft
          {
            OFFSET 11.078341 13.629250 -9.663823
            CHANNELS 3 Zrotation Xrotation Yrotation
            JOINT HandLeft
            {
              OFFSET -2.580934 5.912257 -7.695333
              CHANNELS 3 Zrotation Xrotation Yrotation
              JOINT HandTipLeft
              {
                OFFSET 0.877927 1.484171 -1.071949
                CHANNELS 3 Zrotation Xrotation Yrotation
                End Site
                {
                  OFFSET 0 0 0
                }
              }
              JOINT ThumbLeft
              {
                OFFSET 0.634653 -2.319128 -4.175770
                CHANNELS 3 Zrotation Xrotation Yrotation
                End Site
                {
                  OFFSET 0 0 0
                }
              }
            }
          }
        }
      }
      JOINT ShoulderRight
      {
        OFFSET 9.536115 -3.197364 -11.757320
        CHANNELS 3 Zrotation Xrotation Yrotation
        JOINT ElbowRight
        {
          OFFSET 6.708382 -18.827215 -4.020741
          CHANNELS 3 Zrotation Xrotation Yrotation
          JOINT WristRight
          {
            OFFSET -21.921776 -8.768894 -3.222209
            CHANNELS 3 Zrotation Xrotation Yrotation
            JOINT HandRight
            {
              OFFSET -9.569214 -6.380240 2.492455
              CHANNELS 3 Zrotation Xrotation Yrotation
              JOINT HandTipRight
              {
                OFFSET -5.582627 -3.367338 2.128572
                CHANNELS 3 Zrotation Xrotation Yrotation
                End Site
                {
                  OFFSET 0 0 0
                }
              }
              JOINT ThumbRight
              {
                OFFSET 3.474961 -3.335282 1.506515
                CHANNELS 3 Zrotation Xrotation Yrotation
                End Site
                {
                  OFFSET 0 0 0
                }
              }
            }
          }
        }
      }
    }
  }
  JOINT HipLeft
  {
    OFFSET -5.394257 -0.326271 0.713718
    CHANNELS 3 Zrotation Xrotation Yrotation
    JOINT KneeLeft
    {
      OFFSET 8.151215 -33.329320 7.736490
      CHANNELS 3 Zrotation Xrotation Yrotation
      JOINT AnkleLeft
      {
        OFFSET 6.020151 -31.891577 7.436767
        CHANNELS 3 Zrotation Xrotation Yrotation
        JOINT FootLeft
        {
          OFFSET -4.774817 -2.819639 -9.098147
          CHANNELS 3 Zrotation Xrotation Yrotation
          End Site
          {
            OFFSET 0 0 0
          }
        }
      }
    }
  }
  JOINT HipRight
  {
    OFFSET 4.919238 1.479669 -6.778520
    CHANNELS 3 Zrotation Xrotation Yrotation
    JOINT KneeRight
    {
      OFFSET 8.420195 -27.808877 -0.129013
      CHANNELS 3 Zrotation Xrotation Yrotation
      JOINT AnkleRight
      {
        OFFSET 8.141270 -38.151176 11.080644
        CHANNELS 3 Zrotation Xrotation Yrotation
        JOINT FootRight
        {
          OFFSET -3.178209 -4.098453 -2.549975
          CHANNELS 3 Zrotation Xrotation Yrotation
          End Site
          {
            OFFSET 0 0 0
          }
        }
      }
    }
  }
}
MOTION
Frames: 12
Frame Time: 0.033333
27.779094 71.175191 363.785861 -0.000000 0.000000 35.996531 -0.000000 0.000000 -35.996531 -0.000000 0.000000 0.000000 -0.000000 0.000000 0.000000 0.000000 0.000000 0.000000 -0.000000 0.000000 0.000000 -0.000000 0.000000 0.000000 -0.000000 0.000000 0.000000 -0.000000 0.000000 0.000000 0.000000 0.000000 0.000000 0.000000 0.000000 0.000000 -0.000000 0.000000 0.000000 -0.000000 0.000000 0.000000 -0.000000 0.000000 0.000000 -0.000000 0.000000 0.000000 0.000000 0.000000 0.000000 0.000000 0.000000 0.000000 -0.000000 0.000000 -35.996531 -0.000000 0.000000 0.000000 -0.000000 0.000000 0.000000 0.000000 0.000000 0.000000 -0.000000 0.000000 -35.996531 -0.000000 0.000000 0.000000 -0.000000 0.000000 0.000000 0.000000 0.000000 0.000000
27.850818 71.202550 363.744339 0.118237 0.115332 36.117475 -0.163495 -0.023473 -36.117628 -0.000000 0.000000 0.000000 -0.000000 0.000000 0.000000 0.000000 0.000000 0.000000 0.007306 2.783387 -0.137778 -1.182440 -3.591569 -0.108327 1.649116 -0.454497 0.224056 2.399718 1.227765 2.009216 0.000000 0.000000 0.000000 0.000000 0.000000 0.000000 -0.000000 0.000000 0.000000 -1.120447 0.087081 0.190182 6.332729 -1.071408 3.593066 4.577773 5.337062 -6.418101 0.000000 0.000000 0.000000 0.000000 0.000000 0.000000 -0.163495 -0.023473 -36.117628 -0.000000 0.000000 0.000000 -0.000000 0.000000 0.000000 0.000000 0.000000 0.000000 -1.341782 -0.797833 -36.524038 0.486195 1.323465 0.392349 0.736014 -4.674142 3.298037 0.000000 0.000000 0.000000
27.908216 71.233569 363.707148 0.220559 0.226847 36.221288 -0.311979 -0.052675 -36.221868 -0.000000 0.000000 0.000000 -0.000000 0.000000 0.000000 0.000000 0.000000 0.000000 0.034679 4.994461 -0.243723 -2.252284 -6.515697 -0.324080 3.034765 -0.507144 0.452811 4.031057 1.290460 3.728632 0.000000 0.000000 0.000000 0.000000 0.000000 0.000000 -0.000000 0.000000 0.000000 -2.500247 0.331544 0.092149 12.471574 -1.888530 7.242468 6.524806 8.180966 -12.210814 0.000000 0.000000 0.000000 0.000000 0.000000 0.000000 -0.311979 -0.052675 -36.221868 -0.000000 0.000000 0.000000 0.548513 -1.169343 0.225182 0.000000 0.000000 0.000000 -2.537032 -1.428772 -36.982430 0.950782 2.437211 0.711566 0.903200 -6.753481 4.943240 0.000000 0.000000 0.000000
27.951290 71.268249 363.674290 0.307046 0.334657 36.308598 -0.445591 -0.087863 -36.309836 -0.000000 0.000000 0.000000 -0.000000 0.000000 0.000000 0.000000 0.000000 0.000000 0.078050 6.713286 -0.322717 -3.184946 -8.831483 -0.588334 4.110972 -0.141237 0.687663 5.060493 0.119804 5.344674 0.000000 0.000000 0.000000 0.000000 0.000000 0.000000 -0.000000 0.000000 0.000000 -4.151171 0.751996 -0.298870 17.926664 -2.436593 10.592198 7.128791 9.740267 -16.852266 0.000000 0.000000 0.000000 0.000000 0.000000 0.000000 -1.239338 -0.617824 -36.609410 0.321170 0.898734 0.292167 1.055955 -2.370602 0.685974 0.000000 0.000000 0.000000 -3.585183 -1.900661 -37.367153 1.398190 3.344662 0.961994 0.413386 -6.667420 5.140439 0.000000 0.000000 0.000000
27.980038 71.306589 363.645764 0.377741 0.438869 36.379945 -0.564429 -0.129273 -36.382028 -0.000000 0.000000 0.000000 -0.000000 0.000000 0.000000 0.000000 0.000000 0.000000 0.135019 8.002031 -0.378045 -3.952456 -10.584822 -0.851448 4.841412 0.640420 0.931766 5.584392 -2.369559 6.970188 0.000000 0.000000 0.000000 0.000000 0.000000 0.000000 -0.279981 0.968761 0.406968 -5.797423 0.449696 -1.488681 22.126002 -2.811157 13.214506 7.387746 10.608238 -19.997791 0.000000 0.000000 0.000000 0.000000 0.000000 0.000000 -1.510648 -0.739068 -36.738942 0.898867 1.719401 0.577646 1.236247 -4.714587 1.200001 0.000000 0.000000 0.000000 -4.486563 -2.220620 -37.674842 1.998910 4.887680 1.366275 -0.869891 -5.510238 3.856461 0.000000 0.000000 0.000000
27.994462 71.348589 363.621571 0.432653 0.539582 36.435787 -0.668550 -0.177128 -36.438858 -0.000000 0.000000 0.000000 -0.000000 0.000000 0.000000 0.000000 0.000000 0.000000 0.204374 8.906844 -0.411782 -4.528601 -11.810166 -1.073498 5.201187 1.815224 1.189349 5.643537 -6.290152 8.655381 0.000000 0.000000 0.000000 0.000000 0.000000 0.000000 -0.523993 1.563463 0.675296 -7.758029 0.763409 -2.848594 24.308556 -3.191837 14.532402 8.150788 11.013317 -21.192537 0.000000 0.000000 0.000000 0.000000 0.000000 0.000000 -1.711224 -0.819800 -36.831421 1.085213 1.823802 0.640340 2.062031 -6.964634 2.262350 0.000000 0.000000 0.000000 -5.242150 -2.394783 -37.903132 2.554709 5.541017 1.547965 -2.489122 -1.898666 1.687558 0.000000 0.000000 0.000000
28.001554 71.394170 363.553715 0.477368 0.653630 36.353606 -0.771914 -0.243423 -36.357969 0.781889 0.536342 0.049798 -1.612726 -0.512908 -0.038897 0.000000 0.000000 0.000000 -0.052813 5.399185 -0.180550 -4.677807 -7.027240 -2.223531 3.961728 4.750849 3.622033 6.817756 -21.710465 14.593242 0.000000 0.000000 0.000000 0.000000 0.000000 0.000000 -1.632354 1.902389 1.001581 -10.349571 1.537520 -5.338601 19.892354 -4.281331 12.064840 13.394288 11.170329 -18.268340 0.000000 0.000000 0.000000 0.000000 0.000000 0.000000 -1.881726 -0.766679 -36.766790 1.555300 1.505960 0.678734 4.605183 -12.702246 5.361549 0.000000 0.000000 0.000000 -5.096199 -1.634164 -37.540643 2.587407 3.733961 1.027430 -6.035898 7.238343 -1.369582 0.000000 0.000000 0.000000
27.990955 71.450325 363.532648 0.510711 0.776358 36.216324 -0.005811 -0.233748 -36.199835 0.226243 0.118420 0.042230 -1.655805 -0.966527 -0.130790 0.000000 0.000000 0.000000 -0.142025 6.175748 -0.241820 -4.851226 -8.575370 -1.922951 3.256956 8.085909 3.534930 2.347791 -30.225541 12.723280 0.000000 0.000000 0.000000 0.000000 0.000000 0.000000 -2.066328 2.603856 1.384592 -12.995356 2.143251 -7.196403 9.912005 -3.052673 2.602606 19.781144 9.445757 -6.113047 0.000000 0.000000 0.000000 0.000000 0.000000 0.000000 -1.949494 -0.614310 -36.606311 2.046892 0.858485 0.659458 4.886002 -13.630044 6.481657 0.000000 0.000000 0.000000 -6.370555 -2.001232 -37.726152 4.231097 5.923984 1.700647 -4.385364 3.214318 -1.654511 0.000000 0.000000 0.000000
27.958494 71.491630 363.546899 0.503846 0.882842 36.265971 0.037180 -0.206643 -36.248916 0.193123 0.106159 0.041113 -1.294859 -1.556516 -0.259584 0.000000 0.000000 0.000000 -0.600895 10.040859 -0.576689 -4.130494 -13.147285 -1.250520 1.786011 11.519052 2.803665 -2.512024 -36.780743 8.991352 0.000000 0.000000 0.000000 0.000000 0.000000 0.000000 -2.530408 3.375772 1.829499 -15.736220 3.747714 -10.483368 -0.172809 -2.397230 -3.793177 25.228580 8.388264 2.284290 0.000000 0.000000 0.000000 0.000000 0.000000 0.000000 -1.930976 -0.966799 -36.650615 1.517615 1.393084 0.647347 9.055454 -20.395633 10.625341 0.000000 0.000000 0.000000 -7.149577 -2.440846 -38.038943 4.825502 7.219810 2.036008 -4.915154 9.946167 -6.613311 0.000000 0.000000 0.000000
27.908288 71.540891 363.584974 0.497311 0.982481 36.532175 0.144630 -0.182304 -36.512640 0.176418 0.082434 0.043282 -1.137429 -2.225708 -0.406618 0.000000 0.000000 0.000000 -1.376950 17.816702 -1.139889 -4.745723 -25.052012 0.412358 3.507804 11.135613 -1.696882 -6.612199 -32.183134 6.453037 0.000000 0.000000 0.000000 0.000000 0.000000 0.000000 -3.125991 4.146734 2.295308 -17.669655 4.618875 -12.626389 -8.929646 1.199857 -11.466337 26.902056 4.832764 10.306770 0.000000 0.000000 0.000000 0.000000 0.000000 0.000000 -1.865741 -0.910709 -36.868213 1.520135 1.173444 0.600460 8.971091 -20.401444 11.596566 0.000000 0.000000 0.000000 -8.339500 -3.026021 -38.715783 5.771266 9.219348 2.531112 -5.813925 23.246708 -15.199421 0.000000 0.000000 0.000000
27.852978 71.607214 363.636573 0.503452 1.083129 36.916125 0.248242 -0.171464 -36.893636 0.153662 0.041042 0.045621 -1.103385 -2.848008 -0.547427 0.000000 0.000000 0.000000 -2.527575 27.730652 -1.754859 -7.998140 -40.788899 -0.290319 5.334996 7.861042 -9.966067 -16.605820 -34.768751 5.484523 0.000000 0.000000 0.000000 0.000000 0.000000 0.000000 -3.595936 4.896090 2.714522 -19.092103 5.116976 -14.229673 -12.429505 5.175704 -16.517284 20.407461 -0.052807 9.749063 0.000000 0.000000 0.000000 0.000000 0.000000 0.000000 -1.053135 -0.563511 -36.926063 0.943862 0.373312 0.287269 12.382827 -24.874712 14.075922 0.000000 0.000000 0.000000 -8.654933 -3.472530 -39.290280 5.713384 10.192024 2.763513 -5.105155 22.207646 -15.601481 0.000000 0.000000 0.000000
27.799508 71.693308 363.678348 0.525659 1.198172 37.503454 0.324046 -0.208967 -37.477294 0.147632 -0.014150 0.049947 -1.256334 -3.342535 -0.671184 0.000000 0.000000 0.000000 -2.509741 36.173939 -2.190166 -8.540869 -56.365784 3.263242 3.176390 5.639128 -20.239354 -12.839713 -23.059644 12.539275 0.000000 0.000000 0.000000 0.000000 0.000000 0.000000 -4.032138 5.644940 3.099717 -21.253362 6.224044 -16.133734 -14.363389 9.854773 -21.398560 19.039840 -4.514574 11.941401 0.000000 0.000000 0.000000 0.000000 0.000000 0.000000 -1.146529 -0.630412 -37.515259 1.243920 0.006905 0.290716 12.013590 -24.443039 13.291562 0.000000 0.000000 0.000000 -8.738683 -3.755931 -39.966550 5.438657 10.673906 2.882002 -4.160403 22.777483 -16.849321 0.000000 0.000000 0.000000
